<svg width="21" height="20" viewBox="0 0 21 20" xmlns="http://www.w3.org/2000/svg"><title>post-instagram</title><path d="M18.34 0h-16c-1.1 0-2 .9-2 2v16c0 1.1.9 2 2 2h16c1.1 0 2-.9 2-2V2c0-1.1-.9-2-2-2zm-8 6c2.2 0 4 1.8 4 4s-1.8 4-4 4-4-1.8-4-4 1.8-4 4-4zm-7.5 12c-.3 0-.5-.2-.5-.5V9h2.1c-.1.3-.1.7-.1 1 0 3.3 2.7 6 6 6s6-2.7 6-6c0-.3 0-.7-.1-1h2.1v8.5c0 .3-.2.5-.5.5h-15zm15.5-13.5c0 .3-.2.5-.5.5h-2c-.3 0-.5-.2-.5-.5v-2c0-.3.2-.5.5-.5h2c.3 0 .5.2.5.5v2z" fill-opacity=".851" fill="#FFF" fill-rule="evenodd"/></svg>