<svg width="22" height="18" viewBox="0 0 22 18" xmlns="http://www.w3.org/2000/svg"><title>post-twitter</title><path d="M19.506 4.417c-.166 7.67-5 13.004-12.337 13.338-3.002.166-5.17-.834-7.17-2 2.167.332 5.002-.5 6.502-1.835-2.167-.167-3.5-1.334-4.168-3.168.667.167 1.334 0 1.834 0-2-.666-3.334-1.834-3.5-4.5.5.332 1.166.5 1.833.5C1 5.917 0 2.75 1.168.748c2.167 2.333 4.835 4.334 9.17 4.667-1.167-4.668 5.168-7.17 7.67-4 1.166-.168 2-.668 2.833-1-.333 1.166-1 1.833-1.834 2.5.834-.167 1.667-.334 2.334-.667-.166.833-1 1.5-1.834 2.167z" fill-opacity=".851" fill="#FFF" fill-rule="evenodd"/></svg>