<?xml version="1.0" encoding="UTF-8" standalone="no"?>
<svg width="22px" height="18px" viewBox="0 0 22 18" version="1.1" xmlns="http://www.w3.org/2000/svg" xmlns:xlink="http://www.w3.org/1999/xlink" xmlns:sketch="http://www.bohemiancoding.com/sketch/ns">
    <!-- Generator: Sketch 3.5.1 (25234) - http://www.bohemiancoding.com/sketch -->
    <title>post-twitter</title>
    <desc>Created with Sketch.</desc>
    <defs></defs>
    <g id="Dribbble" stroke="none" stroke-width="1" fill="none" fill-rule="evenodd" sketch:type="MSPage">
        <g id="z" sketch:type="MSArtboardGroup" transform="translate(-269.000000, -424.000000)" fill-opacity="0.850656703" fill="#FFFFFF">
            <g id="contact" sketch:type="MSLayerGroup" transform="translate(225.000000, 422.000000)">
                <g id="post-twitter" transform="translate(44.000000, 2.000000)" sketch:type="MSShapeGroup">
                    <path d="M19.5063379,4.41702108 C19.3396171,12.0861796 14.5047128,17.4212464 7.16899599,17.754688 C4.16802092,17.9214089 2.00065004,16.9210838 -3.55271368e-15,15.754038 C2.16737088,16.0874797 5.00162511,15.2538755 6.50211264,13.9201088 C4.33474176,13.7533879 3.00097506,12.5863421 2.33409172,10.7524129 C3.00097506,10.9191337 3.66785841,10.7524129 4.16802092,10.7524129 C2.16737088,10.0855295 0.833604185,8.91848368 0.666883348,6.25095029 C1.16704586,6.58439196 1.83392921,6.7511128 2.50081255,6.7511128 C1.00032502,5.91750861 -5.03349217e-15,2.74981271 1.16704586,0.749162666 C3.33441674,3.08325438 6.00195013,5.08390443 10.3366919,5.4173461 C9.16964603,0.749162666 15.5050378,-1.75164989 18.0058504,1.41604601 C19.1728962,1.24932518 20.0065004,0.749162666 20.8401046,0.415720992 C20.5066629,1.58276685 19.8397796,2.2496502 19.0061754,2.91653355 C19.8397796,2.74981271 20.6733838,2.58309187 21.3402671,2.2496502 C21.1735463,3.08325438 20.3399421,3.75013773 19.5063379,4.41702108 L19.5063379,4.41702108 Z" id="Shape"></path>
                </g>
            </g>
        </g>
    </g>
</svg>