<?xml version="1.0" encoding="UTF-8" standalone="no"?>
<svg width="21px" height="20px" viewBox="0 0 21 20" version="1.1" xmlns="http://www.w3.org/2000/svg" xmlns:xlink="http://www.w3.org/1999/xlink" xmlns:sketch="http://www.bohemiancoding.com/sketch/ns">
    <!-- Generator: Sketch 3.5.1 (25234) - http://www.bohemiancoding.com/sketch -->
    <title>post-instagram</title>
    <desc>Created with Sketch.</desc>
    <defs></defs>
    <g id="Dribbble" stroke="none" stroke-width="1" fill="none" fill-rule="evenodd" sketch:type="MSPage">
        <g id="z" sketch:type="MSArtboardGroup" transform="translate(-314.000000, -422.000000)" fill-opacity="0.850656703" fill="#FFFFFF">
            <g id="contact" sketch:type="MSLayerGroup" transform="translate(225.000000, 422.000000)">
                <g id="post-instagram" transform="translate(89.000000, 0.000000)" sketch:type="MSShapeGroup">
                    <path d="M18.3402671,0 L2.34026713,0 C1.24026713,0 0.340267128,0.9 0.340267128,2 L0.340267128,18 C0.340267128,19.1 1.24026713,20 2.34026713,20 L18.3402671,20 C19.4402671,20 20.3402671,19.1 20.3402671,18 L20.3402671,2 C20.3402671,0.9 19.4402671,0 18.3402671,0 L18.3402671,0 Z M10.3402671,6 C12.5402671,6 14.3402671,7.8 14.3402671,10 C14.3402671,12.2 12.5402671,14 10.3402671,14 C8.14026713,14 6.34026713,12.2 6.34026713,10 C6.34026713,7.8 8.14026713,6 10.3402671,6 L10.3402671,6 Z M2.84026713,18 C2.54026713,18 2.34026713,17.8 2.34026713,17.5 L2.34026713,9 L4.44026713,9 C4.34026713,9.3 4.34026713,9.7 4.34026713,10 C4.34026713,13.3 7.04026713,16 10.3402671,16 C13.6402671,16 16.3402671,13.3 16.3402671,10 C16.3402671,9.7 16.3402671,9.3 16.2402671,9 L18.3402671,9 L18.3402671,17.5 C18.3402671,17.8 18.1402671,18 17.8402671,18 L2.84026713,18 L2.84026713,18 Z M18.3402671,4.5 C18.3402671,4.8 18.1402671,5 17.8402671,5 L15.8402671,5 C15.5402671,5 15.3402671,4.8 15.3402671,4.5 L15.3402671,2.5 C15.3402671,2.2 15.5402671,2 15.8402671,2 L17.8402671,2 C18.1402671,2 18.3402671,2.2 18.3402671,2.5 L18.3402671,4.5 L18.3402671,4.5 Z" id="Shape"></path>
                </g>
            </g>
        </g>
    </g>
</svg>